<svg xmlns="http://www.w3.org/2000/svg" viewBox="0 0 120 120" role="img" aria-labelledby="title desc">
  <title id="title">Bole seal logo</title>
  <desc id="desc">A refined circular seal showing Bole, the ancient talent scout, guiding a thousand-mile horse.</desc>
  <rect width="120" height="120" rx="34" fill="#fffaf0"/>
  <circle cx="60" cy="60" r="48" fill="none" stroke="#7f2823" stroke-width="4"/>
  <circle cx="60" cy="60" r="42" fill="none" stroke="#b76750" stroke-width="1.5"/>

  <!-- Bole: a calm, simplified scholar silhouette -->
  <circle cx="38" cy="39" r="5.5" fill="#29345e"/>
  <path d="M31 35c1.5-6.4 11.2-8.2 15.1-2.3-5.2-.3-8.8 1.2-12.3 5.2Z" fill="#29345e"/>
  <path d="M34.4 46.4c-4.3 7.1-5.3 17.4-4.2 29.5l-4.6 12.1 8.1-2.4 5-8.8 3.1 9.8 7.6 1.5-3.8-12.7c1.8-9.2 1.4-18.4-2.8-27.5-2.2 2.4-5.4 3.5-8.3-1.5Z" fill="#29345e"/>
  <path d="M36.6 49.1c2.1 4.1 5.7 5.7 9.6 4.4M30.4 76.4c4.6 3.4 10.1 3.7 15.4.9" fill="none" stroke="#fffaf0" stroke-linecap="round" stroke-width="1.8"/>

  <!-- Rein: the connection between recognition and potential -->
  <path d="M43.2 57.2c7.1-4.3 11.8-4 16.7.3 4.4 3.8 8.1 2.4 10.6-2.2" fill="none" stroke="#b76750" stroke-linecap="round" stroke-width="2.5"/>
  <circle cx="44" cy="57" r="2" fill="#b76750"/>

  <!-- Thousand-mile horse: compact chestnut silhouette -->
  <path d="M75.8 37.8c4.8-2.8 11.5-1 14.4 3.6l4.7 5.2-5.4-1.1c4.4 4.5 5.8 10.4 4.1 16.6l6.1 4.7c2.1 1.6 1.1 5-1.5 5.2l-7.1.5c-1.3 7-5.4 12.2-11.4 15.4l1.7 7.4-5.3 1.4-3.8-9.5c-4.4-.7-8.2-2.5-11.2-5.6l-6.7 6.5-4-3.8 7.5-9.6c-1.5-6.5.4-12.9 5.4-17.5l4.2-3.9-1-6.5 4.8 3.8c2-1.4 4.2-2.2 6.4-2.6Zm3.9 10.7a2.3 2.3 0 1 0 0 4.6 2.3 2.3 0 0 0 0-4.6Z" fill="#71452f"/>
  <path d="M64.1 57.5c3.6 2.6 7.3 3.6 11.4 2.2 4.3-1.4 7.3-4.8 9.3-9.6" fill="none" stroke="#fffaf0" stroke-linecap="round" stroke-width="2"/>
  <path d="M65.1 78.5c5 2.4 10.7 2.5 16.2.4" fill="none" stroke="#fffaf0" stroke-linecap="round" stroke-width="1.6" opacity=".9"/>

  <!-- Recognition spark -->
  <path d="m84.5 22.5 1.6 4.2 4.2 1.6-4.2 1.6-1.6 4.2-1.6-4.2-4.2-1.6 4.2-1.6Z" fill="#d7a441"/>
</svg>
